<?xml version="1.0" encoding="utf-8"?>
<!-- Generator: Adobe Illustrator 18.1.0, SVG Export Plug-In . SVG Version: 6.00 Build 0)  -->
<svg version="1.1" xmlns="http://www.w3.org/2000/svg" xmlns:xlink="http://www.w3.org/1999/xlink" x="0px" y="0px"
	 viewBox="0 0 360 360" enable-background="new 0 0 360 360" xml:space="preserve">
<g id="Layer_2_1_">
</g>
<g id="Layer_1">
	<g id="Layer_1_1_">
	</g>
	<g id="Layer_1_2_">
	</g>
	<g id="Layer_1_3_">
	</g>
	<polygon fill="none" stroke="#000000" stroke-width="5" stroke-miterlimit="10" points="180,92.5 185.3,136.6 200.9,95.1 
		195.5,139.1 220.7,102.5 204.8,144 238,114.5 212.7,151 252,130.3 218.7,159.7 261.8,149 222.5,169.5 266.8,169.5 223.7,180 
		266.8,190.5 222.5,190.5 261.8,211 218.7,200.3 252,229.7 212.7,209 238,245.5 204.8,216 220.7,257.5 195.5,220.9 200.9,264.9 
		185.3,223.4 180,267.5 174.7,223.4 159.1,264.9 164.5,220.9 139.3,257.5 155.2,216 122,245.5 147.3,209 108,229.7 141.3,200.3 
		98.2,211 137.5,190.5 93.2,190.5 136.3,180 93.2,169.5 137.5,169.5 98.2,149 141.3,159.7 108,130.3 147.3,151 122,114.5 155.2,144 
		139.3,102.5 164.5,139.1 159.1,95.1 174.7,136.6 	"/>
</g>
</svg>
