<?xml version="1.0" encoding="utf-8"?>
<!-- Generator: Adobe Illustrator 18.1.0, SVG Export Plug-In . SVG Version: 6.00 Build 0)  -->
<svg version="1.1" xmlns="http://www.w3.org/2000/svg" xmlns:xlink="http://www.w3.org/1999/xlink" x="0px" y="0px"
	 viewBox="0 0 360 360" enable-background="new 0 0 360 360" xml:space="preserve">
<g id="Layer_2_1_">
</g>
<g id="Layer_1">
	<g id="Layer_1_1_">
	</g>
	<g id="Layer_1_2_">
	</g>
	<g id="Layer_1_3_">
	</g>
	<g>
		<g>
			<path d="M75.9,196.3c0,0,0.2,0,0.7-0.1c0.5,0,1.1-0.1,2-0.1c1.8,0,4.5,0.2,7.7,1.4c1.6,0.6,3.3,1.5,5,2.7
				c1.7,1.2,3.4,2.6,5.1,4.2c3.4,3.1,7,6.8,11.5,8.6c2.2,1,4.7,1.4,7.3,1.5c0.6,0,1.4,0,2-0.1l1.2-0.1c0.4,0,0.6-0.1,0.9-0.1
				c0.6-0.1,1.3-0.3,1.9-0.4c0.6-0.2,1.3-0.4,1.9-0.6c2.5-1,4.7-2.5,6.8-4.6c2.2-2.1,4.3-4.7,6.9-7.4c2.6-2.7,5.8-5.5,9.9-7.3
				c2-0.9,4.2-1.6,6.3-1.9c0.5-0.1,1.1-0.1,1.6-0.2c0.5-0.1,1.1-0.1,1.6-0.1l0.8,0l0.4,0l0.1,0l0.3,0l0.2,0l1.4,0
				c1,0.1,2.4,0.2,3.4,0.4c1.1,0.2,2.2,0.4,3.3,0.8c2.2,0.6,4.3,1.6,6.2,2.8c3.8,2.4,6.7,5.5,9.3,8.2c2.6,2.7,4.9,5.1,7.4,6.7
				c2.5,1.6,5.1,2.4,8.1,2.6l1.1,0.1l0.1,0c0.2,0-0.2,0-0.1,0l0.1,0l0.3,0l0.7,0l0.7,0l0.5-0.1c0.3,0,0.6,0,1-0.1
				c1.4-0.2,2.8-0.5,4.1-1.1c2.6-1,5-2.8,7.3-5.1c2.4-2.2,4.8-4.9,7.6-7.3c2.8-2.4,6.3-4.6,9.9-5.6c0.9-0.3,1.8-0.5,2.7-0.7
				c0.9-0.1,1.8-0.3,2.7-0.3c0.9-0.1,1.8-0.1,2.6-0.1l0.8,0l0.6,0l1.1,0.1c0.8,0.1,1.8,0.2,2.6,0.4c0.8,0.2,1.7,0.4,2.4,0.6
				c1.6,0.5,3.1,1.1,4.5,1.9c2.8,1.6,5,3.6,6.9,5.5c1.8,2,3.4,3.9,4.8,5.6c2.8,3.5,5.5,6.2,8.2,7.7c2.7,1.6,5.2,2.3,6.9,2.6
				c0.9,0.2,1.5,0.3,2,0.3c0.5,0.1,0.7,0.1,0.7,0.1s-0.2,0-0.7,0.1c-0.5,0-1.1,0.1-2,0.1c-1.8,0-4.5-0.1-7.7-1.4
				c-1.6-0.6-3.3-1.5-5-2.7c-1.7-1.2-3.4-2.6-5.1-4.2c-3.4-3.1-7-6.8-11.5-8.6c-1.1-0.5-2.3-0.8-3.5-1.1c-0.6-0.1-1.2-0.2-1.9-0.3
				c-0.6-0.1-1.2-0.1-1.8-0.1l-1.1,0l-0.6,0c0.2,0,0,0,0.1,0l-0.1,0l-0.1,0l-0.3,0c-0.7,0-1.3,0.1-2,0.2c-1.3,0.2-2.6,0.5-3.8,1
				c-2.5,0.9-4.7,2.5-6.8,4.6c-2.2,2.1-4.3,4.7-6.9,7.4c-2.6,2.7-5.8,5.5-9.9,7.3c-2,0.9-4.2,1.6-6.3,1.9c-0.5,0.1-1.2,0.1-1.7,0.2
				l-0.9,0.1l-0.7,0l-0.7,0l-0.3,0l-0.3,0l-0.2,0l-1.6,0c-2.2-0.1-4.4-0.5-6.6-1.1c-2.2-0.6-4.3-1.6-6.2-2.8
				c-3.8-2.4-6.8-5.5-9.3-8.2c-2.5-2.7-4.9-5.1-7.3-6.7c-1.2-0.8-2.5-1.4-3.9-1.8c-0.7-0.2-1.4-0.4-2.1-0.5c-0.4-0.1-0.7-0.1-1-0.2
				l-0.5-0.1c-0.2,0-0.3-0.1-0.6-0.1l-1.4-0.1l-0.2,0c0,0-0.2,0,0.1,0l-0.1,0l-0.3,0l-0.6,0c-0.8,0-1.5,0.1-2.2,0.2
				c-1.4,0.2-2.8,0.5-4.1,1.1c-2.6,1-5,2.8-7.3,5.1c-2.4,2.2-4.8,4.9-7.6,7.3c-2.8,2.4-6.3,4.6-9.9,5.6c-0.9,0.3-1.8,0.5-2.7,0.7
				c-0.9,0.1-1.8,0.3-2.8,0.3c-0.5,0-1,0.1-1.4,0.1l-1.2,0l-0.7,0l-0.6,0c-0.4,0-0.9-0.1-1.3-0.1c-3.4-0.4-6.7-1.3-9.5-2.9
				c-2.8-1.6-5-3.6-6.9-5.5c-1.8-2-3.4-3.9-4.8-5.6c-2.8-3.5-5.5-6.2-8.2-7.7c-2.7-1.6-5.2-2.3-6.9-2.6c-0.8-0.2-1.5-0.3-2-0.3
				C76.2,196.4,75.9,196.3,75.9,196.3z"/>
		</g>
		<g>
			<path d="M280.3,190.8c0,0-0.2,0-0.7,0.1c-0.5,0-1.1,0.1-2,0.1c-1.8,0-4.5-0.2-7.7-1.4c-1.6-0.6-3.3-1.5-5-2.7
				c-1.7-1.2-3.4-2.6-5.1-4.2c-3.4-3.1-7-6.8-11.5-8.6c-2.2-1-4.7-1.4-7.3-1.5c-0.6,0-1.4,0-2,0.1l-1.2,0.1c-0.4,0-0.6,0.1-0.9,0.1
				c-0.6,0.1-1.3,0.3-1.9,0.4c-0.6,0.2-1.3,0.4-1.9,0.6c-2.5,1-4.7,2.5-6.8,4.6c-2.2,2.1-4.3,4.7-6.9,7.4c-2.6,2.7-5.8,5.5-9.9,7.3
				c-2,0.9-4.2,1.6-6.3,1.9c-0.5,0.1-1.1,0.1-1.6,0.2c-0.5,0.1-1.1,0.1-1.6,0.1l-0.8,0l-0.4,0l-0.1,0l-0.3,0l-0.2,0l-1.4,0
				c-1-0.1-2.4-0.2-3.4-0.4c-1.1-0.2-2.2-0.4-3.3-0.8c-2.2-0.6-4.3-1.6-6.2-2.8c-3.8-2.4-6.7-5.5-9.3-8.2c-2.6-2.7-4.9-5.1-7.4-6.7
				c-2.5-1.6-5.1-2.4-8.1-2.6l-1.1-0.1l-0.1,0c-0.2,0,0.2,0,0.1,0l-0.1,0l-0.3,0l-0.7,0l-0.7,0l-0.5,0.1c-0.3,0-0.6,0-1,0.1
				c-1.4,0.2-2.8,0.5-4.1,1.1c-2.6,1-5,2.8-7.3,5.1c-2.4,2.2-4.8,4.9-7.6,7.3c-2.8,2.4-6.3,4.6-9.9,5.6c-0.9,0.3-1.8,0.5-2.7,0.7
				c-0.9,0.1-1.8,0.3-2.7,0.3c-0.9,0.1-1.8,0.1-2.6,0.1l-0.8,0l-0.6,0l-1.1-0.1c-0.8-0.1-1.8-0.2-2.6-0.4c-0.8-0.2-1.7-0.4-2.4-0.6
				c-1.6-0.5-3.1-1.1-4.5-1.9c-2.8-1.6-5-3.6-6.9-5.5c-1.8-2-3.4-3.9-4.8-5.6c-2.8-3.5-5.5-6.2-8.2-7.7c-2.7-1.6-5.2-2.3-6.9-2.6
				c-0.9-0.2-1.5-0.3-2-0.3c-0.5-0.1-0.7-0.1-0.7-0.1s0.2,0,0.7-0.1c0.5,0,1.1-0.1,2-0.1c1.8,0,4.5,0.1,7.7,1.4
				c1.6,0.6,3.3,1.5,5,2.7c1.7,1.2,3.4,2.6,5.1,4.2c3.4,3.1,7,6.8,11.5,8.6c1.1,0.5,2.3,0.8,3.5,1.1c0.6,0.1,1.2,0.2,1.9,0.3
				c0.6,0.1,1.2,0.1,1.8,0.1l1.1,0l0.6,0c-0.2,0,0,0-0.1,0l0.1,0l0.1,0l0.3,0c0.7,0,1.3-0.1,2-0.2c1.3-0.2,2.6-0.5,3.8-1
				c2.5-0.9,4.7-2.5,6.8-4.6c2.2-2.1,4.3-4.7,6.9-7.4c2.6-2.7,5.8-5.5,9.9-7.3c2-0.9,4.2-1.6,6.3-1.9c0.5-0.1,1.2-0.1,1.7-0.2
				l0.9-0.1l0.7,0l0.7,0l0.3,0l0.3,0l0.2,0l1.6,0c2.2,0.1,4.4,0.5,6.6,1.1c2.2,0.6,4.3,1.6,6.2,2.8c3.8,2.4,6.8,5.5,9.3,8.2
				c2.5,2.7,4.9,5.1,7.3,6.7c1.2,0.8,2.5,1.4,3.9,1.8c0.7,0.2,1.4,0.4,2.1,0.5c0.4,0.1,0.7,0.1,1,0.2l0.5,0.1c0.2,0,0.3,0.1,0.6,0.1
				l1.4,0.1l0.2,0c0,0,0.2,0-0.1,0l0.1,0l0.3,0l0.6,0c0.8,0,1.5-0.1,2.2-0.2c1.4-0.2,2.8-0.5,4.1-1.1c2.6-1,5-2.8,7.3-5.1
				c2.4-2.2,4.8-4.9,7.6-7.3c2.8-2.4,6.3-4.6,9.9-5.6c0.9-0.3,1.8-0.5,2.7-0.7c0.9-0.1,1.8-0.3,2.8-0.3c0.5,0,1-0.1,1.4-0.1l1.2,0
				l0.7,0l0.6,0c0.4,0,0.9,0.1,1.3,0.1c3.4,0.4,6.7,1.3,9.5,2.9c2.8,1.6,5,3.6,6.9,5.5c1.8,2,3.4,3.9,4.8,5.6
				c2.8,3.5,5.5,6.2,8.2,7.7c2.7,1.6,5.2,2.3,6.9,2.6c0.8,0.2,1.5,0.3,2,0.3C280.1,190.8,280.3,190.8,280.3,190.8z"/>
		</g>
		<g>
			<path d="M75.9,142.1c0,0,0.2,0,0.7-0.1c0.5,0,1.1-0.1,2-0.1c1.8,0,4.5,0.2,7.7,1.4c1.6,0.6,3.3,1.5,5,2.7
				c1.7,1.2,3.4,2.6,5.1,4.2c3.4,3.1,7,6.8,11.5,8.6c2.2,1,4.7,1.4,7.3,1.5c0.6,0,1.4,0,2-0.1l1.2-0.1c0.4,0,0.6-0.1,0.9-0.1
				c0.6-0.1,1.3-0.3,1.9-0.4c0.6-0.2,1.3-0.4,1.9-0.6c2.5-1,4.7-2.5,6.8-4.6c2.2-2.1,4.3-4.7,6.9-7.4c2.6-2.7,5.8-5.5,9.9-7.3
				c2-0.9,4.2-1.6,6.3-1.9c0.5-0.1,1.1-0.1,1.6-0.2c0.5-0.1,1.1-0.1,1.6-0.1l0.8,0l0.4,0l0.1,0l0.3,0l0.2,0l1.4,0
				c1,0.1,2.4,0.2,3.4,0.4c1.1,0.2,2.2,0.4,3.3,0.8c2.2,0.6,4.3,1.6,6.2,2.8c3.8,2.4,6.7,5.5,9.3,8.2c2.6,2.7,4.9,5.1,7.4,6.7
				c2.5,1.6,5.1,2.4,8.1,2.6l1.1,0.1l0.1,0c0.2,0-0.2,0-0.1,0l0.1,0l0.3,0l0.7,0l0.7,0l0.5-0.1c0.3,0,0.6,0,1-0.1
				c1.4-0.2,2.8-0.5,4.1-1.1c2.6-1,5-2.8,7.3-5.1c2.4-2.2,4.8-4.9,7.6-7.3c2.8-2.4,6.3-4.6,9.9-5.6c0.9-0.3,1.8-0.5,2.7-0.7
				c0.9-0.1,1.8-0.3,2.7-0.3c0.9-0.1,1.8-0.1,2.6-0.1l0.8,0l0.6,0l1.1,0.1c0.8,0.1,1.8,0.2,2.6,0.4c0.8,0.2,1.7,0.4,2.4,0.6
				c1.6,0.5,3.1,1.1,4.5,1.9c2.8,1.6,5,3.6,6.9,5.5c1.8,2,3.4,3.9,4.8,5.6c2.8,3.5,5.5,6.2,8.2,7.7c2.7,1.6,5.2,2.3,6.9,2.6
				c0.9,0.2,1.5,0.3,2,0.3c0.5,0.1,0.7,0.1,0.7,0.1s-0.2,0-0.7,0.1c-0.5,0-1.1,0.1-2,0.1c-1.8,0-4.5-0.1-7.7-1.4
				c-1.6-0.6-3.3-1.5-5-2.7c-1.7-1.2-3.4-2.6-5.1-4.2c-3.4-3.1-7-6.8-11.5-8.6c-1.1-0.5-2.3-0.8-3.5-1.1c-0.6-0.1-1.2-0.2-1.9-0.3
				c-0.6-0.1-1.2-0.1-1.8-0.1l-1.1,0l-0.6,0c0.2,0,0,0,0.1,0l-0.1,0l-0.1,0l-0.3,0c-0.7,0-1.3,0.1-2,0.2c-1.3,0.2-2.6,0.5-3.8,1
				c-2.5,0.9-4.7,2.5-6.8,4.6c-2.2,2.1-4.3,4.7-6.9,7.4c-2.6,2.7-5.8,5.5-9.9,7.3c-2,0.9-4.2,1.6-6.3,1.9c-0.5,0.1-1.2,0.1-1.7,0.2
				l-0.9,0.1l-0.7,0l-0.7,0l-0.3,0l-0.3,0l-0.2,0l-1.6,0c-2.2-0.1-4.4-0.5-6.6-1.1c-2.2-0.6-4.3-1.6-6.2-2.8
				c-3.8-2.4-6.8-5.5-9.3-8.2c-2.5-2.7-4.9-5.1-7.3-6.7c-1.2-0.8-2.5-1.4-3.9-1.8c-0.7-0.2-1.4-0.4-2.1-0.5c-0.4-0.1-0.7-0.1-1-0.2
				l-0.5-0.1c-0.2,0-0.3-0.1-0.6-0.1l-1.4-0.1l-0.2,0c0,0-0.2,0,0.1,0l-0.1,0l-0.3,0l-0.6,0c-0.8,0-1.5,0.1-2.2,0.2
				c-1.4,0.2-2.8,0.5-4.1,1.1c-2.6,1-5,2.8-7.3,5.1c-2.4,2.2-4.8,4.9-7.6,7.3c-2.8,2.4-6.3,4.6-9.9,5.6c-0.9,0.3-1.8,0.5-2.7,0.7
				c-0.9,0.1-1.8,0.3-2.8,0.3c-0.5,0-1,0.1-1.4,0.1l-1.2,0l-0.7,0l-0.6,0c-0.4,0-0.9-0.1-1.3-0.1c-3.4-0.4-6.7-1.3-9.5-2.9
				c-2.8-1.6-5-3.6-6.9-5.5c-1.8-2-3.4-3.9-4.8-5.6c-2.8-3.5-5.5-6.2-8.2-7.7c-2.7-1.6-5.2-2.3-6.9-2.6c-0.8-0.2-1.5-0.3-2-0.3
				C76.2,142.1,75.9,142.1,75.9,142.1z"/>
		</g>
	</g>
</g>
</svg>
