<?xml version="1.0" encoding="utf-8"?>
<!-- Generator: Adobe Illustrator 18.1.0, SVG Export Plug-In . SVG Version: 6.00 Build 0)  -->
<svg version="1.1" xmlns="http://www.w3.org/2000/svg" xmlns:xlink="http://www.w3.org/1999/xlink" x="0px" y="0px"
	 viewBox="0 0 360 360" enable-background="new 0 0 360 360" xml:space="preserve">
<g id="Layer_2_1_">
</g>
<g id="Layer_1">
	<g id="Layer_1_1_">
	</g>
	<g id="Layer_1_2_">
	</g>
	<g id="Layer_1_3_">
	</g>
	<g>
		<g>
			<path d="M161.8,77.8c0,0,0,0.2,0.1,0.7c0,0.5,0.1,1.1,0.1,2c0,1.8-0.2,4.5-1.4,7.7c-0.6,1.6-1.5,3.3-2.7,5
				c-1.2,1.7-2.6,3.4-4.2,5.1c-3.1,3.4-6.8,7-8.6,11.5c-1,2.2-1.4,4.7-1.5,7.3c0,0.6,0,1.4,0.1,2l0.1,1.2c0,0.4,0.1,0.6,0.1,0.9
				c0.1,0.6,0.3,1.3,0.4,1.9c0.2,0.6,0.4,1.3,0.6,1.9c1,2.5,2.5,4.7,4.6,6.8c2.1,2.2,4.7,4.3,7.4,6.9c2.7,2.6,5.5,5.8,7.3,9.9
				c0.9,2,1.6,4.2,1.9,6.3c0.1,0.5,0.1,1.1,0.2,1.6c0.1,0.5,0.1,1.1,0.1,1.6l0,0.8l0,0.4l0,0.1l0,0.3l0,0.2l0,1.4
				c-0.1,1-0.2,2.4-0.4,3.4c-0.2,1.1-0.4,2.2-0.8,3.3c-0.6,2.2-1.6,4.3-2.8,6.2c-2.4,3.8-5.5,6.7-8.2,9.3c-2.7,2.6-5.1,4.9-6.7,7.4
				c-1.6,2.5-2.4,5.1-2.6,8.1l-0.1,1.1l0,0.1c0,0.2,0-0.2,0-0.1l0,0.1l0,0.3l0,0.7l0,0.7l0.1,0.5c0,0.3,0,0.6,0.1,1
				c0.2,1.4,0.5,2.8,1.1,4.1c1,2.6,2.8,5,5.1,7.3c2.2,2.4,4.9,4.8,7.3,7.6c2.4,2.8,4.6,6.3,5.6,9.9c0.3,0.9,0.5,1.8,0.7,2.7
				c0.1,0.9,0.3,1.8,0.3,2.7c0.1,0.9,0.1,1.8,0.1,2.6l0,0.8l0,0.6l-0.1,1.1c-0.1,0.8-0.2,1.8-0.4,2.6c-0.2,0.8-0.4,1.7-0.6,2.4
				c-0.5,1.6-1.1,3.1-1.9,4.5c-1.6,2.8-3.6,5-5.5,6.9c-2,1.8-3.9,3.4-5.6,4.8c-3.5,2.8-6.2,5.5-7.7,8.2c-1.6,2.7-2.3,5.2-2.6,6.9
				c-0.2,0.9-0.3,1.5-0.3,2c-0.1,0.5-0.1,0.7-0.1,0.7s0-0.2-0.1-0.7c0-0.5-0.1-1.1-0.1-2c0-1.8,0.1-4.5,1.4-7.7
				c0.6-1.6,1.5-3.3,2.7-5c1.2-1.7,2.6-3.4,4.2-5.1c3.1-3.4,6.8-7,8.6-11.5c0.5-1.1,0.8-2.3,1.1-3.5c0.1-0.6,0.2-1.2,0.3-1.9
				c0.1-0.6,0.1-1.2,0.1-1.8l0-1.1l0-0.6c0,0.2,0,0,0,0.1l0-0.1l0-0.1l0-0.3c0-0.7-0.1-1.3-0.2-2c-0.2-1.3-0.5-2.6-1-3.8
				c-0.9-2.5-2.5-4.7-4.6-6.8c-2.1-2.2-4.7-4.3-7.4-6.9c-2.7-2.6-5.5-5.8-7.3-9.9c-0.9-2-1.6-4.2-1.9-6.3c-0.1-0.5-0.1-1.2-0.2-1.7
				l-0.1-0.9l0-0.7l0-0.7l0-0.3l0-0.3l0-0.2l0-1.6c0.1-2.2,0.5-4.4,1.1-6.6c0.6-2.2,1.6-4.3,2.8-6.2c2.4-3.8,5.5-6.8,8.2-9.3
				c2.7-2.5,5.1-4.9,6.7-7.3c0.8-1.2,1.4-2.5,1.8-3.9c0.2-0.7,0.4-1.4,0.5-2.1c0.1-0.4,0.1-0.7,0.2-1l0.1-0.5c0-0.2,0.1-0.3,0.1-0.6
				l0.1-1.4l0-0.2c0,0,0-0.2,0,0.1l0-0.1l0-0.3l0-0.6c0-0.8-0.1-1.5-0.2-2.2c-0.2-1.4-0.5-2.8-1.1-4.1c-1-2.6-2.8-5-5.1-7.3
				c-2.2-2.4-4.9-4.8-7.3-7.6c-2.4-2.8-4.6-6.3-5.6-9.9c-0.3-0.9-0.5-1.8-0.7-2.7c-0.1-0.9-0.3-1.8-0.3-2.8c0-0.5-0.1-1-0.1-1.4
				l0-1.2l0-0.7l0-0.6c0-0.4,0.1-0.9,0.1-1.3c0.4-3.4,1.3-6.7,2.9-9.5c1.6-2.8,3.6-5,5.5-6.9c2-1.8,3.9-3.4,5.6-4.8
				c3.5-2.8,6.2-5.5,7.7-8.2c1.6-2.7,2.3-5.2,2.6-6.9c0.2-0.8,0.3-1.5,0.3-2C161.8,78.1,161.8,77.8,161.8,77.8z"/>
		</g>
		<g>
			<path d="M167.3,282.2c0,0,0-0.2-0.1-0.7c0-0.5-0.1-1.1-0.1-2c0-1.8,0.2-4.5,1.4-7.7c0.6-1.6,1.5-3.3,2.7-5
				c1.2-1.7,2.6-3.4,4.2-5.1c3.1-3.4,6.8-7,8.6-11.5c1-2.2,1.4-4.7,1.5-7.3c0-0.6,0-1.4-0.1-2l-0.1-1.2c0-0.4-0.1-0.6-0.1-0.9
				c-0.1-0.6-0.3-1.3-0.4-1.9c-0.2-0.6-0.4-1.3-0.6-1.9c-1-2.5-2.5-4.7-4.6-6.8c-2.1-2.2-4.7-4.3-7.4-6.9c-2.7-2.6-5.5-5.8-7.3-9.9
				c-0.9-2-1.6-4.2-1.9-6.3c-0.1-0.5-0.1-1.1-0.2-1.6c-0.1-0.5-0.1-1.1-0.1-1.6l0-0.8l0-0.4l0-0.1l0-0.3l0-0.2l0-1.4
				c0.1-1,0.2-2.4,0.4-3.4c0.2-1.1,0.4-2.2,0.8-3.3c0.6-2.2,1.6-4.3,2.8-6.2c2.4-3.8,5.5-6.7,8.2-9.3c2.7-2.6,5.1-4.9,6.7-7.4
				c1.6-2.5,2.4-5.1,2.6-8.1l0.1-1.1l0-0.1c0-0.2,0,0.2,0,0.1l0-0.1l0-0.3l0-0.7l0-0.7l-0.1-0.5c0-0.3,0-0.6-0.1-1
				c-0.2-1.4-0.5-2.8-1.1-4.1c-1-2.6-2.8-5-5.1-7.3c-2.2-2.4-4.9-4.8-7.3-7.6c-2.4-2.8-4.6-6.3-5.6-9.9c-0.3-0.9-0.5-1.8-0.7-2.7
				c-0.1-0.9-0.3-1.8-0.3-2.7c-0.1-0.9-0.1-1.8-0.1-2.6l0-0.8l0-0.6l0.1-1.1c0.1-0.8,0.2-1.8,0.4-2.6c0.2-0.8,0.4-1.7,0.6-2.4
				c0.5-1.6,1.1-3.1,1.9-4.5c1.6-2.8,3.6-5,5.5-6.9c2-1.8,3.9-3.4,5.6-4.8c3.5-2.8,6.2-5.5,7.7-8.2c1.6-2.7,2.3-5.2,2.6-6.9
				c0.2-0.9,0.3-1.5,0.3-2c0.1-0.5,0.1-0.7,0.1-0.7s0,0.2,0.1,0.7c0,0.5,0.1,1.1,0.1,2c0,1.8-0.1,4.5-1.4,7.7
				c-0.6,1.6-1.5,3.3-2.7,5c-1.2,1.7-2.6,3.4-4.2,5.1c-3.1,3.4-6.8,7-8.6,11.5c-0.5,1.1-0.8,2.3-1.1,3.5c-0.1,0.6-0.2,1.2-0.3,1.9
				c-0.1,0.6-0.1,1.2-0.1,1.8l0,1.1l0,0.6c0-0.2,0,0,0-0.1l0,0.1l0,0.1l0,0.3c0,0.7,0.1,1.3,0.2,2c0.2,1.3,0.5,2.6,1,3.8
				c0.9,2.5,2.5,4.7,4.6,6.8c2.1,2.2,4.7,4.3,7.4,6.9c2.7,2.6,5.5,5.8,7.3,9.9c0.9,2,1.6,4.2,1.9,6.3c0.1,0.5,0.1,1.2,0.2,1.7
				l0.1,0.9l0,0.7l0,0.7l0,0.3l0,0.3l0,0.2l0,1.6c-0.1,2.2-0.5,4.4-1.1,6.6c-0.6,2.2-1.6,4.3-2.8,6.2c-2.4,3.8-5.5,6.8-8.2,9.3
				c-2.7,2.5-5.1,4.9-6.7,7.3c-0.8,1.2-1.4,2.5-1.8,3.9c-0.2,0.7-0.4,1.4-0.5,2.1c-0.1,0.4-0.1,0.7-0.2,1l-0.1,0.5
				c0,0.2-0.1,0.3-0.1,0.6l-0.1,1.4l0,0.2c0,0,0,0.2,0-0.1l0,0.1l0,0.3l0,0.6c0,0.8,0.1,1.5,0.2,2.2c0.2,1.4,0.5,2.8,1.1,4.1
				c1,2.6,2.8,5,5.1,7.3c2.2,2.4,4.9,4.8,7.3,7.6c2.4,2.8,4.6,6.3,5.6,9.9c0.3,0.9,0.5,1.8,0.7,2.7c0.1,0.9,0.3,1.8,0.3,2.8
				c0,0.5,0.1,1,0.1,1.4l0,1.2l0,0.7l0,0.6c0,0.4-0.1,0.9-0.1,1.3c-0.4,3.4-1.3,6.7-2.9,9.5c-1.6,2.8-3.6,5-5.5,6.9
				c-2,1.8-3.9,3.4-5.6,4.8c-3.5,2.8-6.2,5.5-7.7,8.2c-1.6,2.7-2.3,5.2-2.6,6.9c-0.2,0.8-0.3,1.5-0.3,2
				C167.3,281.9,167.3,282.2,167.3,282.2z"/>
		</g>
		<g>
			<path d="M216,77.8c0,0,0,0.2,0.1,0.7c0,0.5,0.1,1.1,0.1,2c0,1.8-0.2,4.5-1.4,7.7c-0.6,1.6-1.5,3.3-2.7,5
				c-1.2,1.7-2.6,3.4-4.2,5.1c-3.1,3.4-6.8,7-8.6,11.5c-1,2.2-1.4,4.7-1.5,7.3c0,0.6,0,1.4,0.1,2l0.1,1.2c0,0.4,0.1,0.6,0.1,0.9
				c0.1,0.6,0.3,1.3,0.4,1.9c0.2,0.6,0.4,1.3,0.6,1.9c1,2.5,2.5,4.7,4.6,6.8c2.1,2.2,4.7,4.3,7.4,6.9c2.7,2.6,5.5,5.8,7.3,9.9
				c0.9,2,1.6,4.2,1.9,6.3c0.1,0.5,0.1,1.1,0.2,1.6c0.1,0.5,0.1,1.1,0.1,1.6l0,0.8l0,0.4l0,0.1l0,0.3l0,0.2l0,1.4
				c-0.1,1-0.2,2.4-0.4,3.4c-0.2,1.1-0.4,2.2-0.8,3.3c-0.6,2.2-1.6,4.3-2.8,6.2c-2.4,3.8-5.5,6.7-8.2,9.3c-2.7,2.6-5.1,4.9-6.7,7.4
				c-1.6,2.5-2.4,5.1-2.6,8.1l-0.1,1.1l0,0.1c0,0.2,0-0.2,0-0.1l0,0.1l0,0.3l0,0.7l0,0.7l0.1,0.5c0,0.3,0,0.6,0.1,1
				c0.2,1.4,0.5,2.8,1.1,4.1c1,2.6,2.8,5,5.1,7.3c2.2,2.4,4.9,4.8,7.3,7.6c2.4,2.8,4.6,6.3,5.6,9.9c0.3,0.9,0.5,1.8,0.7,2.7
				c0.1,0.9,0.3,1.8,0.3,2.7c0.1,0.9,0.1,1.8,0.1,2.6l0,0.8l0,0.6l-0.1,1.1c-0.1,0.8-0.2,1.8-0.4,2.6c-0.2,0.8-0.4,1.7-0.6,2.4
				c-0.5,1.6-1.1,3.1-1.9,4.5c-1.6,2.8-3.6,5-5.5,6.9c-2,1.8-3.9,3.4-5.6,4.8c-3.5,2.8-6.2,5.5-7.7,8.2c-1.6,2.7-2.3,5.2-2.6,6.9
				c-0.2,0.9-0.3,1.5-0.3,2c-0.1,0.5-0.1,0.7-0.1,0.7s0-0.2-0.1-0.7c0-0.5-0.1-1.1-0.1-2c0-1.8,0.1-4.5,1.4-7.7
				c0.6-1.6,1.5-3.3,2.7-5c1.2-1.7,2.6-3.4,4.2-5.1c3.1-3.4,6.8-7,8.6-11.5c0.5-1.1,0.8-2.3,1.1-3.5c0.1-0.6,0.2-1.2,0.3-1.9
				c0.1-0.6,0.1-1.2,0.1-1.8l0-1.1l0-0.6c0,0.2,0,0,0,0.1l0-0.1l0-0.1l0-0.3c0-0.7-0.1-1.3-0.2-2c-0.2-1.3-0.5-2.6-1-3.8
				c-0.9-2.5-2.5-4.7-4.6-6.8c-2.1-2.2-4.7-4.3-7.4-6.9c-2.7-2.6-5.5-5.8-7.3-9.9c-0.9-2-1.6-4.2-1.9-6.3c-0.1-0.5-0.1-1.2-0.2-1.7
				l-0.1-0.9l0-0.7l0-0.7l0-0.3l0-0.3l0-0.2l0-1.6c0.1-2.2,0.5-4.4,1.1-6.6c0.6-2.2,1.6-4.3,2.8-6.2c2.4-3.8,5.5-6.8,8.2-9.3
				c2.7-2.5,5.1-4.9,6.7-7.3c0.8-1.2,1.4-2.5,1.8-3.9c0.2-0.7,0.4-1.4,0.5-2.1c0.1-0.4,0.1-0.7,0.2-1l0.1-0.5c0-0.2,0.1-0.3,0.1-0.6
				l0.1-1.4l0-0.2c0,0,0-0.2,0,0.1l0-0.1l0-0.3l0-0.6c0-0.8-0.1-1.5-0.2-2.2c-0.2-1.4-0.5-2.8-1.1-4.1c-1-2.6-2.8-5-5.1-7.3
				c-2.2-2.4-4.9-4.8-7.3-7.6c-2.4-2.8-4.6-6.3-5.6-9.9c-0.3-0.9-0.5-1.8-0.7-2.7c-0.1-0.9-0.3-1.8-0.3-2.8c0-0.5-0.1-1-0.1-1.4
				l0-1.2l0-0.7l0-0.6c0-0.4,0.1-0.9,0.1-1.3c0.4-3.4,1.3-6.7,2.9-9.5c1.6-2.8,3.6-5,5.5-6.9c2-1.8,3.9-3.4,5.6-4.8
				c3.5-2.8,6.2-5.5,7.7-8.2c1.6-2.7,2.3-5.2,2.6-6.9c0.2-0.8,0.3-1.5,0.3-2C216,78.1,216,77.8,216,77.8z"/>
		</g>
	</g>
</g>
</svg>
